<?xml version="1.0" standalone="no"?>
<!DOCTYPE svg PUBLIC "-//W3C//DTD SVG 20010904//EN"
 "http://www.w3.org/TR/2001/REC-SVG-20010904/DTD/svg10.dtd">
<svg version="1.0" xmlns="http://www.w3.org/2000/svg"
 width="260.000000pt" height="260.000000pt" viewBox="0 0 260.000000 260.000000"
 preserveAspectRatio="xMidYMid meet">
<metadata>
Created by potrace 1.11, written by Peter Selinger 2001-2013
</metadata>
<g transform="translate(0.000000,260.000000) scale(0.100000,-0.100000)"
fill="#000000" stroke="none">
<path d="M1265 2030 c3 -5 8 -10 11 -10 2 0 4 5 4 10 0 6 -5 10 -11 10 -5 0
-7 -4 -4 -10z"/>
<path d="M1315 1979 c0 -79 22 -80 27 -1 2 46 0 58 -12 59 -12 1 -15 -11 -15
-58z"/>
<path d="M1101 2016 c-16 -19 -4 -42 30 -56 16 -7 29 -17 29 -22 0 -15 -32
-22 -51 -9 -15 9 -19 8 -19 -4 0 -17 45 -21 68 -6 21 13 10 44 -21 59 -15 7
-27 20 -27 28 0 17 31 19 48 2 9 -9 12 -8 12 5 0 21 -52 24 -69 3z"/>
<path d="M1205 1975 c0 -30 5 -55 10 -55 6 0 10 25 10 55 0 30 -4 55 -10 55
-5 0 -10 -25 -10 -55z"/>
<path d="M1367 2010 c4 -13 0 -26 -8 -32 -11 -7 -9 -8 6 -6 22 4 29 48 8 55
-7 3 -9 -3 -6 -17z"/>
<path d="M1413 2014 c-4 -11 6 -27 33 -49 l39 -33 -25 -11 -25 -11 25 3 c38 3
38 40 0 67 -18 13 -29 28 -26 36 3 8 1 14 -5 14 -5 0 -12 -7 -16 -16z"/>
<path d="M1466 2016 c10 -8 21 -12 24 -10 5 6 -21 24 -34 24 -6 0 -1 -6 10
-14z"/>
<path d="M1525 1965 c0 -30 5 -55 10 -55 6 0 10 25 10 55 0 30 -4 55 -10 55
-5 0 -10 -25 -10 -55z"/>
<path d="M1008 1985 c2 -14 6 -25 8 -25 2 0 4 11 4 25 0 14 -4 25 -9 25 -4 0
-6 -11 -3 -25z"/>
<path d="M1580 1990 c0 -11 14 -29 30 -42 34 -25 39 -44 13 -51 -15 -4 -15 -5
-2 -6 9 0 23 6 30 15 12 15 9 21 -25 50 -21 18 -35 38 -31 43 3 6 1 11 -4 11
-6 0 -11 -9 -11 -20z"/>
<path d="M1620 2006 c0 -2 7 -9 15 -16 9 -7 15 -8 15 -2 0 5 -7 12 -15 16 -8
3 -15 4 -15 2z"/>
<path d="M920 1940 c0 -33 3 -60 8 -60 4 0 6 21 4 48 l-4 47 41 -39 c22 -22
43 -37 47 -34 7 7 -74 98 -87 98 -5 0 -9 -27 -9 -60z"/>
<path d="M1730 1931 c0 -34 4 -61 10 -61 6 0 10 12 10 26 0 21 4 25 20 21 11
-3 20 -1 20 4 0 5 -9 9 -20 9 -15 0 -20 7 -20 24 0 14 -4 28 -10 31 -6 4 -10
-17 -10 -54z"/>
<path d="M828 1963 c-2 -10 3 -24 12 -30 13 -11 13 -14 0 -23 -13 -8 -13 -10
3 -10 9 0 17 -7 17 -15 0 -8 7 -15 16 -15 9 0 14 3 12 8 -2 4 -14 28 -26 55
-23 51 -29 56 -34 30z"/>
<path d="M1795 1960 c3 -5 8 -10 11 -10 2 0 4 5 4 10 0 6 -5 10 -11 10 -5 0
-7 -4 -4 -10z"/>
<path d="M728 1890 c-1 -33 -2 -60 -1 -60 22 0 28 16 25 65 -5 73 -19 70 -24
-5z"/>
<path d="M1832 1938 c-18 -18 -15 -53 8 -79 10 -13 19 -19 20 -12 0 6 -4 15
-10 18 -14 9 -13 58 2 73 7 7 8 12 2 12 -5 0 -15 -5 -22 -12z"/>
<path d="M1270 1930 c-9 -6 -10 -10 -3 -10 6 0 15 5 18 10 8 12 4 12 -15 0z"/>
<path d="M1410 1930 c0 -5 5 -10 11 -10 5 0 7 5 4 10 -3 6 -8 10 -11 10 -2 0
-4 -4 -4 -10z"/>
<path d="M1900 1934 c0 -3 5 -14 11 -26 15 -29 3 -66 -24 -71 -19 -4 -18 -4 6
-6 39 -2 55 35 33 78 -15 28 -26 39 -26 25z"/>
<path d="M660 1926 c0 -2 7 -6 15 -10 8 -3 15 -1 15 4 0 6 -7 10 -15 10 -8 0
-15 -2 -15 -4z"/>
<path d="M807 1911 c-4 -17 -3 -21 5 -13 5 5 8 16 6 23 -3 8 -7 3 -11 -10z"/>
<path d="M631 1902 c-12 -22 3 -42 31 -42 11 0 18 -7 18 -20 0 -19 -14 -25
-47 -21 -7 1 -13 -3 -13 -10 0 -13 47 -4 67 13 24 20 15 48 -18 55 -24 4 -29
10 -26 24 6 24 1 24 -12 1z"/>
<path d="M1580 1910 c0 -5 5 -10 11 -10 5 0 7 5 4 10 -3 6 -8 10 -11 10 -2 0
-4 -4 -4 -10z"/>
<path d="M1960 1866 c0 -30 5 -58 10 -61 10 -6 14 25 10 73 -1 13 4 22 13 22
21 0 32 -33 14 -44 -12 -8 -11 -14 5 -43 11 -18 24 -33 30 -33 5 0 0 14 -12
30 -19 26 -19 31 -6 36 32 12 7 54 -41 68 -22 7 -23 5 -23 -48z"/>
<path d="M571 1891 c-46 -13 -56 -71 -12 -71 28 0 37 -21 16 -37 -11 -7 -14
-13 -8 -13 17 0 35 27 31 47 -2 9 -14 20 -28 23 -35 8 -33 35 3 35 15 -1 27 5
27 12 0 7 -1 13 -2 12 -2 -1 -14 -4 -27 -8z"/>
<path d="M786 1865 c-3 -8 -1 -15 4 -15 6 0 10 7 10 15 0 8 -2 15 -4 15 -2 0
-6 -7 -10 -15z"/>
<path d="M2078 1824 c3 -39 9 -57 25 -71 20 -17 21 -17 8 0 -8 10 -13 38 -12
66 1 31 -3 50 -11 54 -10 3 -12 -9 -10 -49z"/>
<path d="M493 1815 c0 -27 2 -38 4 -22 2 15 2 37 0 50 -2 12 -4 0 -4 -28z"/>
<path d="M2162 1798 c-1 -33 -7 -50 -19 -57 -17 -10 -17 -10 0 -11 23 0 29 18
24 71 l-4 44 -1 -47z"/>
<path d="M410 1771 c0 -54 10 -68 37 -52 17 10 17 10 1 11 -15 0 -18 9 -18 45
0 25 -4 45 -10 45 -5 0 -10 -22 -10 -49z"/>
<path d="M1468 1805 c-94 -19 -189 -67 -255 -129 l-57 -53 -41 18 c-62 27
-137 36 -345 38 -186 2 -190 2 -190 -18 0 -17 6 -21 34 -21 19 0 43 -8 55 -17
21 -18 22 -24 24 -349 2 -314 1 -333 -17 -353 -13 -14 -31 -21 -58 -21 -31 0
-38 -3 -38 -20 0 -19 7 -20 177 -20 175 0 176 0 158 -20 -12 -13 -14 -20 -5
-20 7 0 10 -8 7 -20 -3 -11 4 -31 16 -46 20 -26 23 -26 106 -22 196 12 516
161 573 268 15 28 18 31 18 13 0 -26 -49 -85 -104 -125 l-39 -28 147 0 c135 0
147 1 144 18 -2 12 -16 19 -45 23 -72 9 -73 11 -73 190 0 134 2 159 15 160 8
0 31 1 50 1 149 0 164 -6 174 -68 4 -26 12 -40 24 -42 15 -3 17 9 17 143 0
132 -2 146 -17 143 -10 -2 -21 -18 -26 -38 -16 -64 -29 -70 -139 -70 l-98 0 0
150 0 150 45 0 c37 0 45 3 45 18 0 37 -19 42 -166 42 -150 0 -174 -4 -174 -26
0 -9 12 -14 34 -14 19 0 44 -9 57 -19 23 -19 24 -23 27 -210 2 -105 0 -191 -3
-191 -17 0 -201 99 -243 130 l-47 36 -1 64 c0 41 -6 77 -17 98 -16 29 -16 35
-2 62 22 42 95 93 174 121 76 27 231 32 293 11 55 -19 88 -64 88 -117 0 -61
-8 -75 -41 -75 -16 0 -29 -3 -29 -6 0 -3 14 -25 31 -50 l30 -44 65 57 c45 40
61 59 50 61 -19 4 -20 13 -3 36 12 17 15 17 55 1 34 -14 46 -26 64 -66 35 -75
48 -64 48 40 0 103 -1 104 -95 100 l-55 -3 -29 45 c-43 68 -99 92 -226 95 -58
2 -128 -3 -167 -11z m-495 -197 c54 -16 93 -58 105 -114 25 -117 -61 -204
-202 -204 l-46 0 0 159 0 160 28 4 c52 8 75 7 115 -5z m342 -405 c33 -22 86
-55 118 -73 32 -18 65 -43 73 -56 14 -20 14 -26 0 -51 -16 -31 -80 -94 -115
-112 -26 -14 -82 7 -125 47 -27 26 -226 287 -226 297 0 3 8 5 18 5 9 0 40 13
67 28 l50 28 40 -36 c22 -20 67 -54 100 -77z m-274 -155 l141 -188 57 0 56 -1
-45 -24 c-102 -55 -234 -82 -247 -49 -9 23 17 64 46 71 l25 6 -30 23 c-36 29
-46 30 -69 4 -22 -24 -35 -26 -35 -5 0 11 -11 15 -39 15 -22 0 -46 6 -54 14
-21 21 -29 105 -21 220 l6 101 34 1 c33 0 40 -7 175 -188z"/>
<path d="M2202 1778 c-1 -28 2 -37 8 -28 6 10 13 3 25 -28 10 -23 20 -42 24
-42 3 0 14 12 24 28 l18 27 -3 -44 c-2 -28 2 -46 10 -49 8 -2 12 11 12 47 0
28 0 54 1 59 1 19 -29 10 -41 -13 -16 -29 -23 -24 -39 27 -7 20 -18 41 -25 47
-11 9 -14 3 -14 -31z"/>
<path d="M347 1760 c3 -11 0 -27 -7 -36 -18 -21 10 -50 37 -39 16 6 16 8 -6
16 -17 7 -21 14 -16 27 17 40 17 52 2 52 -10 0 -13 -6 -10 -20z"/>
<path d="M530 1769 c0 -5 5 -7 10 -4 6 3 10 8 10 11 0 2 -4 4 -10 4 -5 0 -10
-5 -10 -11z"/>
<path d="M313 1763 c-9 -3 -13 -26 -13 -64 0 -33 3 -58 8 -55 4 2 7 26 6 53
-1 26 3 54 8 61 11 13 10 13 -9 5z"/>
<path d="M477 1753 c-4 -3 -7 -11 -7 -17 0 -6 5 -5 12 2 6 6 9 14 7 17 -3 3
-9 2 -12 -2z"/>
<path d="M2200 1715 c0 -8 4 -15 10 -15 5 0 7 7 4 15 -4 8 -8 15 -10 15 -2 0
-4 -7 -4 -15z"/>
<path d="M490 598 c0 -36 10 -32 14 6 2 14 -1 26 -5 26 -5 0 -9 -14 -9 -32z"/>
<path d="M526 615 c4 -8 8 -15 10 -15 2 0 4 7 4 15 0 8 -4 15 -10 15 -5 0 -7
-7 -4 -15z"/>
<path d="M557 623 c-9 -9 -9 -41 1 -46 4 -3 7 8 7 24 0 16 0 29 -1 29 0 0 -4
-3 -7 -7z"/>
<path d="M603 600 c0 -23 3 -28 9 -16 5 9 5 23 0 32 -6 12 -9 7 -9 -16z"/>
<path d="M637 623 c-9 -9 -9 -41 1 -46 4 -3 7 8 7 24 0 16 0 29 -1 29 0 0 -4
-3 -7 -7z"/>
<path d="M706 615 c-7 -19 3 -45 16 -45 6 0 5 6 -2 15 -10 12 -10 18 0 30 7 9
8 15 2 15 -5 0 -12 -7 -16 -15z"/>
<path d="M780 600 c0 -16 4 -30 9 -30 4 0 8 13 7 30 -1 39 -16 39 -16 0z"/>
<path d="M819 613 c-8 -9 -9 -14 -2 -10 7 5 13 -1 16 -15 3 -17 5 -14 6 10 1
37 -1 39 -20 15z"/>
<path d="M860 602 c0 -18 5 -32 10 -32 6 0 8 11 4 28 -10 39 -14 40 -14 4z"/>
<path d="M899 613 c-8 -9 -9 -14 -2 -10 7 5 13 -1 16 -15 3 -17 5 -14 6 10 1
37 -1 39 -20 15z"/>
<path d="M947 623 c-9 -9 -9 -41 1 -46 4 -3 7 8 7 24 0 16 0 29 -1 29 0 0 -4
-3 -7 -7z"/>
<path d="M985 620 c3 -5 8 -10 11 -10 2 0 4 5 4 10 0 6 -5 10 -11 10 -5 0 -7
-4 -4 -10z"/>
<path d="M1021 599 c0 -26 2 -30 8 -14 8 19 8 19 19 0 6 -11 13 -17 16 -14 3
2 -6 18 -19 33 l-25 29 1 -34z"/>
<path d="M1090 599 c0 -16 4 -28 9 -25 8 5 3 56 -5 56 -2 0 -4 -14 -4 -31z"/>
<path d="M1130 600 c0 -16 3 -30 8 -30 4 0 7 14 7 30 0 17 -3 30 -7 30 -5 0
-8 -13 -8 -30z"/>
<path d="M1170 599 c0 -16 4 -28 9 -25 8 5 3 56 -5 56 -2 0 -4 -14 -4 -31z"/>
<path d="M1210 600 c0 -16 3 -30 8 -30 4 0 7 14 7 30 0 17 -3 30 -7 30 -5 0
-8 -13 -8 -30z"/>
<path d="M1280 614 c-11 -12 -11 -18 1 -29 12 -12 14 -10 14 15 0 35 1 34 -15
14z"/>
<path d="M1355 600 c0 -16 3 -30 8 -30 4 0 7 14 7 30 0 17 -3 30 -7 30 -5 0
-8 -13 -8 -30z"/>
<path d="M1432 600 c0 -19 2 -27 5 -17 2 9 2 25 0 35 -3 9 -5 1 -5 -18z"/>
<path d="M1472 600 c0 -19 2 -27 5 -17 2 9 2 25 0 35 -3 9 -5 1 -5 -18z"/>
<path d="M1507 623 c-9 -9 -9 -41 1 -46 4 -3 7 8 7 24 0 16 0 29 -1 29 0 0 -4
-3 -7 -7z"/>
<path d="M1581 603 c-1 -38 1 -40 20 -16 8 9 9 14 2 10 -7 -5 -13 1 -16 15 -3
17 -5 14 -6 -9z"/>
<path d="M1620 615 c0 -8 2 -15 4 -15 2 0 6 7 10 15 3 8 1 15 -4 15 -6 0 -10
-7 -10 -15z"/>
<path d="M1656 615 c-7 -19 3 -45 16 -45 6 0 5 6 -2 15 -10 12 -10 18 0 30 7
9 8 15 2 15 -5 0 -12 -7 -16 -15z"/>
<path d="M1792 600 c0 -19 2 -27 5 -17 2 9 2 25 0 35 -3 9 -5 1 -5 -18z"/>
<path d="M1847 623 c-9 -9 -9 -41 1 -46 4 -3 7 8 7 24 0 16 0 29 -1 29 0 0 -4
-3 -7 -7z"/>
<path d="M1895 600 c0 -15 3 -26 8 -23 4 2 7 13 7 23 0 10 -3 21 -7 23 -5 3
-8 -8 -8 -23z"/>
<path d="M1932 600 c0 -19 2 -27 5 -17 2 9 2 25 0 35 -3 9 -5 1 -5 -18z"/>
<path d="M1963 615 c0 -8 4 -12 9 -9 5 3 6 10 3 15 -9 13 -12 11 -12 -6z"/>
<path d="M1991 625 c0 -5 6 -18 13 -28 12 -16 14 -16 20 -2 3 9 2 13 -3 10 -6
-3 -14 3 -20 12 -6 10 -10 14 -10 8z"/>
<path d="M2060 623 c1 -20 28 -55 34 -44 4 6 2 11 -3 11 -6 0 -11 6 -11 14 0
8 -4 18 -10 21 -5 3 -10 3 -10 -2z"/>
<path d="M2107 623 c-2 -5 -1 -19 4 -33 7 -23 7 -23 8 8 1 31 -3 40 -12 25z"/>
<path d="M1760 600 c0 -11 4 -20 8 -20 4 0 8 9 8 20 0 11 -4 20 -8 20 -4 0 -8
-9 -8 -20z"/>
<path d="M1814 601 c0 -11 4 -17 8 -15 4 3 8 12 8 20 0 8 -4 14 -8 14 -4 0 -8
-9 -8 -19z"/>
</g>
</svg>
