<svg width="78" height="66" viewBox="0 0 78 66" xmlns="http://www.w3.org/2000/svg"><title>Group 14</title><g fill="none" fill-rule="evenodd"><path d="M6.875 58.87h63.693V9.605H6.875v49.267zm67.13 6.876H3.439A3.437 3.437 0 0 1 0 62.308V6.167a3.437 3.437 0 0 1 3.438-3.438h70.568c1.9 0 3.437 1.54 3.437 3.438v56.141a3.437 3.437 0 0 1-3.437 3.438z" fill="#D0E9F7"/><path fill="#FCFCFC" d="M6 9h67v50H6z"/><path d="M24.794 23.29c-1.169 0-2.155 1.375-2.155 3.001 0 1.623.986 2.994 2.155 2.994 1.138 0 2.135-1.399 2.135-2.994 0-1.598-.997-3-2.135-3m0 12.87c-4.977 0-9.03-4.428-9.03-9.87 0-5.445 4.053-9.876 9.03-9.876 4.967 0 9.01 4.431 9.01 9.876 0 5.442-4.043 9.87-9.01 9.87" fill="#D0E9F7"/><path d="M17.248 48.337h15.077l.25-3.72c-.006-.36-.532-1.282-1.124-1.502-4.255-1.52-9.054-1.53-13.365.01-.553.207-1.082 1.138-1.093 1.503l.255 3.709zm18.287 6.875H14.037a3.442 3.442 0 0 1-3.43-3.2l-.475-6.94c-.234-3.462 2.228-7.154 5.603-8.409a26.848 26.848 0 0 1 18.057-.007c3.424 1.255 5.889 4.954 5.641 8.425l-.467 6.93a3.44 3.44 0 0 1-3.43 3.2zM52.388 0H26.607a6.013 6.013 0 0 0-6.016 6.016 6.013 6.013 0 0 0 6.016 6.015h25.781a6.013 6.013 0 0 0 6.016-6.015A6.013 6.013 0 0 0 52.388 0m8.023 31.226h-14.32a3.437 3.437 0 1 1 0-6.875h14.32a3.437 3.437 0 0 1 3.438 3.438 3.437 3.437 0 0 1-3.438 3.437m0 10.884h-14.32a3.437 3.437 0 0 1-3.438-3.438 3.437 3.437 0 0 1 3.438-3.438h14.32a3.437 3.437 0 0 1 3.438 3.438 3.437 3.437 0 0 1-3.438 3.437" fill="#D0E9F7"/></g></svg>