<svg width="50" height="50" viewBox="0 0 50 50" xmlns="http://www.w3.org/2000/svg"><title>60059B69-E1DD-4079-BD07-AC0F639DC151</title><path d="M39.86 39.848A20.885 20.885 0 0 1 25 46a20.866 20.866 0 0 1-14.85-6.148A20.864 20.864 0 0 1 4 25a20.87 20.87 0 0 1 6.151-14.852A20.875 20.875 0 0 1 25.004 4c5.61 0 10.885 2.182 14.853 6.148 8.19 8.189 8.19 21.511.002 29.7M42.69 7.32C37.966 2.599 31.685 0 25.006 0c-6.68 0-12.96 2.599-17.68 7.32C2.601 12.041 0 18.319 0 25c-.002 6.679 2.597 12.959 7.322 17.68 4.72 4.721 11 7.32 17.68 7.32s12.962-2.6 17.689-7.324c9.747-9.747 9.745-25.607-.002-35.356M29.39 17.62L25 22.01l-4.39-4.39a2.112 2.112 0 0 0-2.99 0 2.112 2.112 0 0 0 0 2.99L22.01 25l-4.39 4.391A2.112 2.112 0 0 0 19.115 33c.54 0 1.08-.207 1.494-.62L25 27.99l4.39 4.39c.413.413.954.62 1.495.62.542 0 1.083-.207 1.495-.62a2.112 2.112 0 0 0 0-2.989l-4.39-4.39 4.39-4.392a2.112 2.112 0 0 0 0-2.989 2.112 2.112 0 0 0-2.99 0z" fill="#FFF" fill-rule="evenodd"/></svg>