<svg width="24" height="24" viewBox="0 0 24 24" xmlns="http://www.w3.org/2000/svg"><title>Group 40</title><g fill="none" fill-rule="evenodd"><path d="M13.974 8.299l-2.117 2.116L9.74 8.3A1.018 1.018 0 1 0 8.3 9.739l2.117 2.117L8.3 13.973a1.018 1.018 0 0 0 .72 1.74c.261 0 .521-.1.721-.3l2.117-2.116 2.117 2.117a1.017 1.017 0 0 0 1.442 0 1.018 1.018 0 0 0 0-1.441l-2.118-2.117 2.118-2.116a1.018 1.018 0 1 0-1.441-1.44z" fill="#035899"/><circle stroke="#035899" stroke-width="2" cx="12" cy="12" r="11"/></g></svg>