<svg width="34" height="32" viewBox="0 0 34 32" xmlns="http://www.w3.org/2000/svg"><title>Group 27</title><g fill="none" fill-rule="evenodd"><path d="M27.159 32c.41 0 .825-.015 1.242-.047a1.47 1.47 0 0 0 1.328-1.209 1.508 1.508 0 0 0-.79-1.632c-1.291-.654-2.352-1.528-3.16-2.611C30.825 23.982 34 19.403 34 14.456 34 6.702 26.395.393 17.047.393 7.699.393.094 6.703.094 14.456c0 7.753 7.605 14.062 16.953 14.062.22 0 .44-.006.658-.016C20.104 30.762 23.43 32 27.159 32" fill="#035899"/><path d="M23.999 13a2 2 0 1 1 .003 4 2 2 0 0 1-.003-4m-7 0a2 2 0 1 1 .003 4 2 2 0 0 1-.003-4m-5.998 0a2 2 0 1 1 0 3.998A2 2 0 0 1 11 13" fill="#FFF"/></g></svg>