<svg width="34" height="32" viewBox="0 0 34 32" xmlns="http://www.w3.org/2000/svg" xmlns:xlink="http://www.w3.org/1999/xlink"><title>Group 27</title><defs><path id="a" d="M0 16.197V.394h33.906V32H0z"/></defs><g fill="none" fill-rule="evenodd"><g transform="matrix(-1 0 0 1 34 0)"><mask id="b" fill="#fff"><use xlink:href="#a"/></mask><path d="M16.953 3.393c-7.74 0-14.036 4.964-14.036 11.063 0 4.186 3.11 8.09 7.926 9.94.386.15.694.46.846.855.15.396.13.84-.053 1.221l-.085.179a6.606 6.606 0 0 1-.287.57c-.26.447-.548.874-.866 1.28 1.69-.502 3.16-1.376 4.292-2.576.296-.312.69-.468 1.136-.453.37.022.747.046 1.127.046 7.741 0 14.037-4.963 14.037-11.062 0-6.1-6.296-11.063-14.037-11.063M6.841 32c-.41 0-.825-.015-1.242-.047a1.47 1.47 0 0 1-1.328-1.209 1.508 1.508 0 0 1 .79-1.632c1.292-.654 2.352-1.528 3.16-2.611C3.175 23.982 0 19.403 0 14.456 0 6.702 7.605.393 16.953.393c9.348 0 16.953 6.31 16.953 14.063 0 7.753-7.605 14.062-16.953 14.062-.22 0-.44-.006-.658-.016C13.896 30.762 10.57 32 6.841 32" fill="#035899" mask="url(#b)"/></g><path d="M23.999 13a2 2 0 1 1 .003 4 2 2 0 0 1-.003-4m-7 0a2 2 0 1 1 .003 4 2 2 0 0 1-.003-4m-5.998 0a2 2 0 1 1 0 3.998A2 2 0 0 1 11 13" fill="#035899"/></g></svg>