<svg width="30" height="29" viewBox="0 0 30 29" xmlns="http://www.w3.org/2000/svg"><title>Star</title><path d="M15 20.07c.245 0 .488.075.697.227l5.581 4.054-2.133-6.559a1.193 1.193 0 0 1 .43-1.328l5.583-4.054h-6.899a1.19 1.19 0 0 1-1.129-.82L15 5.03l-2.132 6.56c-.158.488-.615.82-1.129.82H4.841l5.582 4.054c.416.302.591.838.43 1.328l-2.133 6.56 5.581-4.055a1.19 1.19 0 0 1 .698-.227m8.537 8.578c-.243 0-.489-.076-.697-.227L15 22.725 7.16 28.42a1.185 1.185 0 0 1-1.395 0 1.192 1.192 0 0 1-.432-1.327l2.997-9.216-7.84-5.695a1.189 1.189 0 0 1 .698-2.148h9.69L13.87.82a1.188 1.188 0 0 1 2.258 0l2.994 9.215h9.69a1.186 1.186 0 0 1 .698 2.148l-7.84 5.695 2.997 9.216a1.185 1.185 0 0 1-1.13 1.554" fill="#BF2D3C" fill-rule="evenodd"/></svg>