<svg width="24" height="24" viewBox="0 0 24 24" xmlns="http://www.w3.org/2000/svg"><title>932C04C6-5941-46AC-AA4A-A7DA37649198</title><path d="M2 5.189h3.188V2H2v3.188zm4.187 2H1c-.554 0-1-.447-1-1V1a1 1 0 0 1 1-1h5.187a1 1 0 0 1 1 1v5.19a1 1 0 0 1-1 1zm4.114-2h3.188V2h-3.188v3.188zm4.188 2H9.301a1 1 0 0 1-1-1V1a1 1 0 0 1 1-1h5.188a1 1 0 0 1 1 1v5.19c0 .553-.446 1-1 1zm4.115-2h3.188V2h-3.188v3.188zm4.187 2h-5.187a1 1 0 0 1-1-1V1a1 1 0 0 1 1-1h5.187a1 1 0 0 1 1 1v5.19a1 1 0 0 1-1 1zM2 13.584h3.188v-3.188H2v3.188zm4.187 2H1a1 1 0 0 1-1-1V9.396c0-.554.446-1 1-1h5.187a1 1 0 0 1 1 1v5.188a1 1 0 0 1-1 1zm4.114-2h3.188v-3.188h-3.188v3.188zm4.188 2H9.301a1 1 0 0 1-1-1V9.396a1 1 0 0 1 1-1h5.188c.554 0 1 .446 1 1v5.188a1 1 0 0 1-1 1zm4.115-2h3.188v-3.188h-3.188v3.188zm4.187 2h-5.187a1 1 0 0 1-1-1V9.396a1 1 0 0 1 1-1h5.187a1 1 0 0 1 1 1v5.188a1 1 0 0 1-1 1zM2 21.979h3.188V18.79H2v3.188zm4.187 2H1c-.554 0-1-.447-1-1V17.79c0-.553.446-1 1-1h5.187a1 1 0 0 1 1 1v5.188a1 1 0 0 1-1 1zm4.114-2h3.188V18.79h-3.188v3.188zm4.188 2H9.301a1 1 0 0 1-1-1V17.79a1 1 0 0 1 1-1h5.188c.554 0 1 .447 1 1v5.188c0 .553-.446 1-1 1zm4.115-2h3.188V18.79h-3.188v3.188zm4.187 2h-5.187a1 1 0 0 1-1-1V17.79a1 1 0 0 1 1-1h5.187a1 1 0 0 1 1 1v5.188a1 1 0 0 1-1 1z" fill="#035899" fill-rule="evenodd"/></svg>