<svg width="18" height="14" viewBox="0 0 18 14" xmlns="http://www.w3.org/2000/svg"><title>CD88FE4F-684D-4AC8-A77F-8444CDEA7278</title><g fill-rule="evenodd" opacity=".4"><path d="M14.675 13.705h-4.264a.666.666 0 0 1-.666-.667V8.836H7.607v4.202a.666.666 0 0 1-.667.667H2.676a.666.666 0 0 1-.667-.667V6.114a.666.666 0 1 1 1.334 0v6.258h2.93V8.169c0-.368.299-.667.667-.667h3.471c.368 0 .667.299.667.667v4.203h2.93V6.114a.666.666 0 1 1 1.334 0v6.924a.666.666 0 0 1-.667.667"/><path d="M16.684 7.735a.665.665 0 0 1-.387-.124L8.676 2.153 1.056 7.61a.667.667 0 1 1-.777-1.084L8.288.79a.667.667 0 0 1 .776 0l8.01 5.736a.666.666 0 0 1-.39 1.208"/></g></svg>