<svg width="53" height="77" viewBox="0 0 53 77" xmlns="http://www.w3.org/2000/svg"><title>Page 1</title><g fill="#D0E9F7" fill-rule="evenodd"><path d="M17.732 56.682h17.444c.16-2.7.758-6.421 2.682-8.993 8.322-10.715 8.706-20.847 8.706-20.947 0-11.09-9.034-20.12-20.136-20.12-11.101 0-20.132 9.03-20.132 20.132 0 .088.39 10.227 8.666 20.888 1.957 2.6 2.587 6.34 2.77 9.04m-3.107 6.295a3.15 3.15 0 0 1-3.141-3.336c.125-2.207-.177-6.38-1.524-8.175C.114 38.781 0 26.874 0 26.754 0 12.181 11.856.327 26.429.327 41.002.327 52.86 12.18 52.86 26.754c0 .12-.113 12.03-9.994 24.747-1.35 1.807-1.532 6.248-1.407 8.108a3.15 3.15 0 0 1-3.141 3.368H14.625zm24.136 7.012H14.096a3.147 3.147 0 1 1 0-6.295h24.665a3.147 3.147 0 1 1 0 6.295m-2.981 6.91H17.077a3.149 3.149 0 0 1 0-6.295H35.78a3.147 3.147 0 1 1 0 6.295"/><path d="M20.791 59.41l-3.985-32.887 3.126-.377 3.982 32.886zm11.276 0l-3.123-.378 3.982-32.886 3.125.377z"/><path d="M32.028 34.42c-.963 0-1.561-.56-1.942-1.134-.38.573-.976 1.134-1.942 1.134-.957 0-1.552-.551-1.933-1.121-.377.57-.972 1.12-1.926 1.12s-1.549-.547-1.93-1.114c-.377.567-.966 1.115-1.92 1.115-1.507 0-2.112-1.367-2.404-2.021a4.423 4.423 0 0 0-.218-.45c.07.097.33.299.693.299V29.1c.95 0 1.545.545 1.926 1.114.378-.57.97-1.114 1.923-1.114.954 0 1.546.548 1.93 1.117.378-.57.97-1.117 1.923-1.117.963 0 1.558.554 1.936 1.127.38-.573.979-1.127 1.939-1.127.966 0 1.564.557 1.945 1.133.384-.576.98-1.133 1.945-1.133v3.148c.356 0 .614-.199.687-.296-.05.07-.155.299-.224.45-.293.655-.9 2.018-2.408 2.018"/></g></svg>