<svg width="17" height="17" viewBox="0 0 17 17" xmlns="http://www.w3.org/2000/svg"><title>Group 30</title><g stroke="#000" stroke-width="1.5" fill="none" fill-rule="evenodd" stroke-linejoin="round"><path d="M7.453 15.175l-4.26 1.243L.708 7.9l4.259-1.243 2.486 8.517z"/><path d="M15.433 8.81c.082.197.118.406.105.608a1.396 1.396 0 0 1-.668 1.114c.014.094.018.181.014.293a1.423 1.423 0 0 1-.925 1.24 1.699 1.699 0 0 1-.086.359l-.1.187c-.228.31-.699.455-1.289.455a3.89 3.89 0 0 1-.481-.033c-.347-.045-.744-.082-1.819-.172l-1.093-.094a11.774 11.774 0 0 0-1.036-.052c-.09 0-.162-.001-.29-.005a5.29 5.29 0 0 0-.253-.005c-.05 0-.094.003-.135.007l-.617.06-1.51-5.117.353-.316c1.011-.907 2.294-2.432 2.76-3.288V4.05c.228-.734.275-1.62.215-2.426l-.045-.611.59-.166c.143-.04.316-.07.463-.081l.296-.022.23.186c.502.405.785 1.45.68 2.748a7.646 7.646 0 0 1-.064.501l-.026.181-.023.17a9.12 9.12 0 0 0-.032.706c-.002.063.024.128.088.193.09.094.182.152.49.245.562.169 1.459.271 2.763.271l.214-.001.095-.002c.918 0 1.663.746 1.663 1.664 0 .457-.19.886-.526 1.204z"/></g></svg>