<svg width="24" height="24" viewBox="0 0 24 24" xmlns="http://www.w3.org/2000/svg" xmlns:xlink="http://www.w3.org/1999/xlink"><title>A7D21116-7A2D-4B10-82ED-4F556C269CDB</title><defs><path id="a" d="M0 23.333h23.545V0H0z"/></defs><g fill="none" fill-rule="evenodd"><path d="M22.545 3.667h-13.5a1 1 0 1 1 0-2h13.5a1 1 0 1 1 0 2z" fill="#035899"/><mask id="b" fill="#fff"><use xlink:href="#a"/></mask><path d="M2 3.333h1.333V2H2v1.333zm2.333 2H1a1 1 0 0 1-1-1V1a1 1 0 0 1 1-1h3.333a1 1 0 0 1 1 1v3.333a1 1 0 0 1-1 1zm18.212 7.334h-13.5a1 1 0 1 1 0-2h13.5a1 1 0 1 1 0 2M2 12.333h1.333V11H2v1.333zm2.333 2H1a1 1 0 0 1-1-1V10a1 1 0 0 1 1-1h3.333a1 1 0 0 1 1 1v3.333a1 1 0 0 1-1 1zm18.212 7.334h-13.5a1 1 0 1 1 0-2h13.5a1 1 0 1 1 0 2M2 21.333h1.333V20H2v1.333zm2.333 2H1a1 1 0 0 1-1-1V19a1 1 0 0 1 1-1h3.333a1 1 0 0 1 1 1v3.333a1 1 0 0 1-1 1z" fill="#035899" mask="url(#b)"/></g></svg>