<svg width="52" height="52" viewBox="0 0 52 52" xmlns="http://www.w3.org/2000/svg"><title>Group 12</title><g transform="translate(1 1)" fill="none" fill-rule="evenodd"><circle stroke="#FFF" stroke-width="2" cx="25" cy="25" r="25"/><path d="M21.352 26.631l2.505 2.612a1.148 1.148 0 0 0 1.671 0l2.505-2.612 4.658 4.859H16.692l4.66-4.859zm-1.67-1.74l-4.616 4.811V20.08l4.615 4.811zm14.636-4.813v9.624l-4.615-4.811 4.615-4.813zm-7.12 3.94l-2.506 2.613-2.506-2.613-5.53-5.764h16.072l-5.53 5.764zm9.526-6.9a1.253 1.253 0 0 0-.34-.935 1.148 1.148 0 0 0-1.07-.336H14.07a1.15 1.15 0 0 0-1.07.336 1.254 1.254 0 0 0-.34.935v15.544c-.017.337.094.678.34.935.321.334.78.43 1.185.3H35.2c.406.13.865.034 1.185-.3a1.25 1.25 0 0 0 .34-.935V17.118z" fill="#FFF"/></g></svg>