<svg width="39" height="35" viewBox="0 0 39 35" xmlns="http://www.w3.org/2000/svg"><title>Group 2</title><g fill="none" fill-rule="evenodd"><path d="M34.621 13.01a.738.738 0 0 0-.56-.257h-1.534V4.486c0-.566-.46-1.027-1.027-1.027H13.688l-1.443-2.405a1.03 1.03 0 0 0-.88-.5H3.35a1.03 1.03 0 0 0-1.027 1.028v11.17H.738a.737.737 0 0 0-.73.849l2.856 18.85c.053.36.367.631.73.631h27.61a.741.741 0 0 0 .73-.628l2.856-18.85a.736.736 0 0 0-.169-.594zM3.485 1.717h7.803l1.444 2.405c.184.308.521.5.88.5h17.754v8.131h-.581V10.43h-.581V8.687h-.581V6.945H5.228v1.742h-.581v1.743h-.581v2.323h-.58V1.717zm1.743 9.874h24.395v1.162H5.228v-1.162zm.58-1.742h23.234v.58H5.808v-.58zm22.653-1.162H6.39v-.58h22.072v.58zm2.379 23.234H3.958L1.231 13.915h32.337L30.84 31.92z" fill-rule="nonzero" fill="#000"/><circle fill="#00D308" cx="31.216" cy="27.432" r="7.568"/><path stroke="#FFF" d="M28.378 26.96l2.584 2.364L35 24.594"/></g></svg>