<svg width="70" height="70" viewBox="0 0 70 70" xmlns="http://www.w3.org/2000/svg" xmlns:xlink="http://www.w3.org/1999/xlink"><title>Group 32</title><defs><circle id="a" cx="35" cy="35" r="35"/></defs><g fill="none" fill-rule="evenodd"><use fill="#E6E6E6" xlink:href="#a"/><g fill-rule="nonzero" fill="#FFF"><path d="M34.882 36.372c6.216 0 8.452-6.224 9.037-11.335C44.64 18.739 41.663 14 34.882 14c-6.779 0-9.758 4.74-9.036 11.037.586 5.111 2.821 11.335 9.036 11.335z"/><path d="M51.695 51.19a42.41 42.41 0 0 0-.647-5.93c-.42-2.365-.953-5.833-3.018-7.374-1.195-.892-2.741-1.184-4.109-1.721a17.826 17.826 0 0 1-1.82-.817c-1.89 2.07-4.352 3.154-7.22 3.154-2.866 0-5.328-1.083-7.217-3.154a17.78 17.78 0 0 1-1.82.817c-1.368.537-2.915.83-4.11 1.72-2.065 1.542-2.598 5.01-3.018 7.376a42.389 42.389 0 0 0-.646 5.929c-.053 1.536.706 1.751 1.991 2.215 1.61.58 3.271 1.012 4.944 1.365 3.23.682 6.561 1.207 9.877 1.23 3.316-.024 6.646-.548 9.877-1.23 1.673-.353 3.335-.784 4.944-1.365 1.286-.463 2.044-.679 1.992-2.215z"/></g></g></svg>