<svg width="52" height="52" viewBox="0 0 52 52" xmlns="http://www.w3.org/2000/svg"><title>Group 9</title><g transform="translate(1 1)" fill="none" fill-rule="evenodd"><circle fill="#FFF" stroke="#FFF" stroke-width="2" cx="25" cy="25" r="25"/><path d="M25.051 16.534c1.586 0 2.87 1.202 2.87 2.686s-1.284 2.688-2.87 2.688c-1.585 0-2.87-1.204-2.87-2.688 0-1.484 1.285-2.686 2.87-2.686m0 9.248c3.872 0 7.01-2.938 7.01-6.562s-3.138-6.562-7.01-6.562c-3.871 0-7.01 2.938-7.01 6.562s3.139 6.562 7.01 6.562m5.407 4.249c.688-.225 1.176-.5 1.53-.784.677-.281 1.151-.914 1.151-1.652 0-1.001-.867-1.813-1.936-1.813-.017 0-.03.004-.047.004-.012 0-.018-.004-.029-.004-1.07 0-1.603.375-1.603.375s-2.27 1.125-4.673 1.125c-2.404 0-3.605-.875-4.405-1.25a2.298 2.298 0 0 0-.514-.15c-.194-.06-.396-.1-.612-.1-.16 0-.315.024-.463.059-.96.096-1.911.587-1.75 1.94.267 2.25 5.074 3 5.074 3l-4.005 3.625.134.268a1.83 1.83 0 0 0-.26.92c0 1.07.929 1.937 2.071 1.937.868 0 1.61-.502 1.916-1.213l3.08-2.788 3.873 3.625.205-.096c.021.016.041.03.061.047v.175l.113-.089c.332.213.733.339 1.166.339 1.144 0 2.07-.868 2.07-1.937 0-.84-.576-1.55-1.374-1.819l-3.302-2.988c.045.005.372-.049 2.53-.756" fill="#04599b"/></g></svg>