<svg width="10" height="18" viewBox="0 0 10 18" xmlns="http://www.w3.org/2000/svg"><title>Fill 1</title><path d="M9.85 9.667c-.237-.517-.895-.946-1.77-.2C6.898 10.475 5 10.475 5 10.475s-1.898 0-3.08-1.008c-.875-.746-1.533-.317-1.77.2-.414.9.054 1.336 1.11 2.07.902.627 2.14.861 2.941.949l-.668.723-2.48 2.685a1.107 1.107 0 0 0 0 1.477l.114.123a.914.914 0 0 0 1.365 0l2.48-2.684 2.479 2.684a.914.914 0 0 0 1.364 0l.114-.123a1.107 1.107 0 0 0 0-1.477l-3.15-3.41c.801-.09 2.027-.325 2.921-.947 1.056-.734 1.524-1.17 1.11-2.07zM5 2.314c1.143 0 2.07 1.004 2.07 2.242 0 1.237-.927 2.24-2.07 2.24-1.143 0-2.07-1.003-2.07-2.24 0-1.238.927-2.242 2.07-2.242zm0 6.797c2.324 0 4.208-2.04 4.208-4.555C9.208 2.04 7.324 0 5 0 2.676 0 .792 2.04.792 4.556S2.676 9.11 5 9.11z" fill="#ee8233" fill-rule="evenodd"/></svg>