<svg width="81" height="82" viewBox="0 0 81 82" xmlns="http://www.w3.org/2000/svg" xmlns:xlink="http://www.w3.org/1999/xlink"><title>Page 1</title><defs><path id="a" d="M0 41.225V.85h80.75V81.6H0z"/></defs><g fill="none" fill-rule="evenodd"><g transform="translate(0 -.45)"><mask id="b" fill="#fff"><use xlink:href="#a"/></mask><path d="M40.375 7.65C21.862 7.65 6.8 22.712 6.8 41.225 6.8 59.738 21.862 74.8 40.375 74.8c18.513 0 33.575-15.062 33.575-33.575 0-18.513-15.062-33.575-33.575-33.575m0 73.95C18.108 81.6 0 63.488 0 41.225 0 18.96 18.108.85 40.375.85S80.75 18.96 80.75 41.225c0 22.263-18.108 40.375-40.375 40.375" fill="#D0E9F7" mask="url(#b)"/></g><path d="M40.375 5.5c-10.856 0-19.69 15.823-19.69 35.275 0 19.451 8.834 35.275 19.69 35.275 10.85 0 19.683-15.824 19.683-35.275 0-19.452-8.834-35.275-19.683-35.275m0 73.95c-12.73 0-23.09-17.35-23.09-38.675 0-21.325 10.36-38.675 23.09-38.675 12.723 0 23.083 17.35 23.083 38.675 0 21.324-10.36 38.675-23.083 38.675" fill="#D0E9F7"/><path d="M42.075 5.54v70.472C60.741 75.12 75.65 59.658 75.65 40.774c0-18.88-14.909-34.343-33.575-35.234m-1.7 73.909c-.942 0-1.7-.758-1.7-1.7V3.799c0-.938.758-1.7 1.7-1.7 21.321 0 38.675 17.35 38.675 38.675 0 21.325-17.354 38.675-38.675 38.675" fill="#D0E9F7"/><path d="M7 52.107h66.745a34.823 34.823 0 0 0 1.904-11.332c0-3.829-.636-7.637-1.904-11.336H7.006a34.862 34.862 0 0 0-1.907 11.336c0 3.825.639 7.633 1.9 11.332m67.939 3.4H5.802a1.7 1.7 0 0 1-1.59-1.102c-1.67-4.427-2.513-9.017-2.513-13.63 0-4.62.843-9.21 2.519-13.638a1.7 1.7 0 0 1 1.591-1.098h69.129c.71 0 1.343.439 1.595 1.098 1.672 4.427 2.516 9.017 2.516 13.638 0 4.624-.844 9.21-2.516 13.634a1.706 1.706 0 0 1-1.595 1.098" fill="#D0E9F7"/></g></svg>