<svg width="79" height="49" viewBox="0 0 79 49" xmlns="http://www.w3.org/2000/svg"><title>Fill 1</title><path d="M59.497 11.785c-1.517 0-2.986.183-4.399.496 4.467-3.772 10.324-6.082 16.746-6.082 1.796 0 3.248-1.385 3.248-3.1C75.092 1.39 73.64 0 71.844 0 54.956 0 41.137 12.622 40.1 28.492a18.393 18.393 0 0 0-.101 1.9C40 40.653 48.741 49 59.497 49 70.252 49 79 40.653 79 30.393c0-10.257-8.748-18.608-19.503-18.608m-39.994 0a20.48 20.48 0 0 0-4.411.496c4.473-3.772 10.33-6.082 16.758-6.082 1.793 0 3.249-1.385 3.249-3.1C35.099 1.39 33.643 0 31.85 0 14.286 0 0 13.636 0 30.393 0 40.653 8.748 49 19.503 49 30.25 49 39 40.653 39 30.393c0-10.257-8.751-18.608-19.497-18.608" fill="#D0E9F7" fill-rule="evenodd" opacity=".497"/></svg>