<svg width="17" height="17" viewBox="0 0 17 17" xmlns="http://www.w3.org/2000/svg"><title>Shape</title><path d="M15.903 17c-.343 0-.617-.276-.685-.622-.686-5.664-4.25-7.184-6.855-7.53v2.764c0 .276-.137.483-.411.621-.206.139-.549.07-.754-.069L.274 6.707C.137 6.569 0 6.362 0 6.154c0-.207.069-.414.274-.552L7.198.144c.205-.138.48-.207.754-.069.205.138.41.346.41.622v2.349c3.223.552 5.553 1.865 6.993 3.937 1.645 2.35 2.056 5.665 1.234 9.326v.07c-.069.414-.343.621-.686.621zM7.746 7.398c1.988.138 6.032.898 7.952 5.18 0-1.588-.343-3.315-1.371-4.835-1.303-1.865-3.565-3.04-6.65-3.454-.342-.069-.617-.345-.617-.69v-1.59L1.92 6.155l5.072 4.007V8.089a.63.63 0 0 1 .206-.484c.205-.138.342-.207.548-.207z"/></svg>