<svg width="33" height="35" viewBox="0 0 33 35" xmlns="http://www.w3.org/2000/svg"><title>Group 10</title><g fill="none" fill-rule="evenodd"><g fill-rule="nonzero" fill="#000"><path d="M6.556 13h13.888c.307 0 .556-.224.556-.5s-.249-.5-.556-.5H6.556c-.307 0-.556.224-.556.5s.249.5.556.5zm.027-4h5.834c.322 0 .583-.224.583-.5s-.261-.5-.583-.5H6.583C6.261 8 6 8.224 6 8.5s.261.5.583.5zm-.027 9h13.888c.307 0 .556-.224.556-.5s-.249-.5-.556-.5H6.556c-.307 0-.556.224-.556.5s.249.5.556.5zm9.865 4H6.58c-.32 0-.579.224-.579.5s.26.5.579.5h9.842c.32 0 .579-.224.579-.5s-.26-.5-.579-.5zm-1.983 4H6.561c-.31 0-.562.224-.562.5s.252.5.563.5h7.875c.31 0 .562-.224.562-.5s-.252-.5-.563-.5z"/><path d="M26.386 19.472V8.265L18.197 0H0v34h24.702C28.726 34 32 30.695 32 26.633c0-3.476-2.4-6.39-5.614-7.16zm-7.86-17.537l5.943 5.998h-5.943V1.935zm2.29 30.932H1.123V1.133h16.28v7.934h7.86v10.225a6.573 6.573 0 0 0-.561-.025c-4.024 0-7.298 3.304-7.298 7.366a7.568 7.568 0 0 0 .048.825c.024.216.055.43.097.64l.017.075c.04.192.09.38.145.566l.041.139c.064.2.134.395.213.588l.048.107c.072.167.15.331.235.492l.06.116c.098.18.204.355.317.526.025.039.052.076.079.115.102.15.21.295.323.436l.064.08c.13.158.266.31.408.455l.106.105c.138.136.279.267.426.391l.04.034a7.43 7.43 0 0 0 .617.458c.043.027.084.058.128.086zm3.886 0c-3.405 0-6.176-2.797-6.176-6.234 0-3.436 2.77-6.233 6.176-6.233a6.825 6.825 0 0 1 1.03.094l.249.042c2.793.597 4.896 3.103 4.896 6.097 0 3.437-2.77 6.234-6.175 6.234z"/></g><circle fill="#00D308" cx="25" cy="27" r="8"/><path stroke="#FFF" d="M22 26.5l2.73 2.5L29 24"/></g></svg>