<svg width="15" height="20" viewBox="0 0 15 20" xmlns="http://www.w3.org/2000/svg"><title>User</title><path d="M12.632 17.42H2.116l-.213-3.12c-.042-.64.553-1.65 1.347-1.945a12.304 12.304 0 0 1 8.242-.002c.804.296 1.397 1.305 1.352 1.947l-.212 3.119zm-.577-6.615a13.924 13.924 0 0 0-9.368.003C1.276 11.329.163 12.98.26 14.412L.525 18.3c.03.431.389.767.822.767h12.056a.825.825 0 0 0 .822-.769l.263-3.885c.101-1.434-1.011-3.086-2.433-3.609zM7.443 1.648c1.271 0 2.306 1.25 2.306 2.785 0 1.536-1.035 2.784-2.306 2.784-1.271 0-2.306-1.248-2.306-2.784 0-1.535 1.035-2.785 2.306-2.785zm0 7.217c2.18 0 3.954-1.988 3.954-4.432C11.397 1.988 9.624 0 7.443 0c-2.18 0-3.954 1.988-3.954 4.433 0 2.444 1.774 4.432 3.954 4.432z" fill="#005799" fill-rule="evenodd"/></svg>