<svg width="52" height="52" viewBox="0 0 52 52" xmlns="http://www.w3.org/2000/svg"><title>Group 11</title><g transform="translate(1 1)" fill="none" fill-rule="evenodd"><circle stroke="#FFF" fill="#FFF" stroke-width="2" cx="25" cy="25" r="25"/><path d="M24.419 33.768h1.76s.532-.06.805-.352c.25-.269.242-.773.242-.773s-.035-2.39 1.062-2.739c1.082-.342 2.47 2.285 3.942 3.296 1.113.764 1.96.568 1.96.568l3.934.003s2.058-.157 1.082-1.775c-.08-.132-.568-1.197-2.926-3.385-2.467-2.292-2.138-1.92.836-5.882 1.81-2.413 2.533-3.887 2.307-4.517-.215-.6-1.538-.497-1.538-.497l-4.44-.002s-.33-.031-.572.114c-.238.142-.39.512-.39.512s-.703 1.901-1.638 3.49c-1.972 3.35-2.761 3.527-3.085 3.319-.75-.485-.562-1.948-.562-2.988 0-3.246.492-4.6-.96-4.95-.481-.117-.835-.194-2.068-.206-1.58-.017-2.919.004-3.676.376-.504.247-.893.796-.656.828.292.04.956.18 1.308.658.454.618.438 2.005.438 2.005s.262 3.822-.61 4.297c-.597.325-1.416-.339-3.175-3.379-.902-1.557-1.582-3.31-1.582-3.31s-.131-.323-.365-.494c-.284-.209-.68-.275-.68-.275l-4.211.001s-.633.017-.865.293c-.206.245-.016.75-.016.75s3.297 7.771 7.029 11.657c3.423 3.564 7.31 3.357 7.31 3.357" fill="#04599b"/></g></svg>